<svg width="1512" height="703" viewBox="0 0 1512 703" fill="none" xmlns="http://www.w3.org/2000/svg">
<path d="M-2.99999 626.205L-2.99995 76.7968L146.786 46.9005C229.53 30.3848 315.038 34.101 396.039 57.7318L446.995 72.5985C541.444 100.155 641.485 102.339 737.048 78.9323L993.651 16.0773C1080.01 -5.07462 1170.16 -5.35861 1256.65 15.2452L1515 76.7969L1515 626.205L1365.21 656.101C1282.47 672.617 1196.96 668.901 1115.96 645.268L1065 630.403C970.556 602.847 870.515 600.663 774.952 624.07L518.349 686.922C431.993 708.074 341.844 708.36 255.355 687.754L-2.99999 626.205Z" fill="#F2F0B8"/>
</svg>
